# exported with NifSkope

mtllib papers.mtl

# Note01:6

g Note01:6
usemtl Material.000001

v -1.89241 -1.3707 0.414216
v -3.70275 0.329398 0.326035
v -3.6133 -1.52356 0.411651
v -3.29779 3.43297 0.147019
v -1.80782 1.11614 0.322037
v -0.12061 -1.38704 0.416857
v 3.44165 -3.43025 0.459608
v 3.61241 -1.65054 0.396322
v 1.73983 -3.23384 0.459608
v 1.76158 -1.60356 0.406503
v -0.120609 -2.82576 0.459608
v -1.93268 -2.62002 0.459608
v -3.67191 -2.56149 0.459608
v 3.5711 1.19186 0.295247
v 1.80228 1.27565 0.306377
v -0.120613 1.36673 0.318477
v -1.72004 3.52314 0.147019
v -3.29779 3.6847 0.021727
v 3.45149 3.09355 0.147019
v 1.82798 3.18944 0.147019
v -0.120618 3.43297 0.147019
v 3.45149 3.34528 0.021727
v 1.82874 3.44109 0.021727
v -1.71364 3.77487 0.021727
v -0.120618 3.6847 0.021727
v 1.91278 2.16481 0.0502114
v 3.77027 0.51417 0.0735089
v 3.62868 2.36544 0.0340664
v 3.45284 -2.60455 0.10509
v 1.89824 -0.323964 0.126208
v 0.141217 2.13152 0.055111
v -3.47716 4.07208 -0.0333354
v -3.59774 2.28806 0.0239374
v -1.77048 3.924 -0.0233166
v -1.74632 2.29388 0.0337481
v 0.100708 3.56927 0.000683896
v 1.91785 3.41499 0.0111221
v 3.65804 3.40547 0.0117662
v -3.47642 -0.552391 0.114811
v -1.70594 -0.585515 0.128208
v 0.218754 -0.621524 0.142772
v 1.87826 -2.73881 0.114174
v 3.45993 -2.86407 -0.00292978
v -3.30331 -2.45564 0.0950152
v -1.67774 -2.50566 0.0983995
v 0.276934 -2.6938 0.111129
v -3.29622 -2.71515 -0.0130049
v -1.67142 -2.76513 -0.00962394
v 1.87896 -2.9985 0.00616582
v 0.284022 -2.95332 0.0031087
vt 0.239945 0.291313
vt 0.000499517 0.544653
vt 0.00316631 0.293464
vt 0.0551291 0.965376
vt 0.256126 0.619042
vt 0.48373 0.289097
vt 0.964278 0.0349922
vt 0.971002 0.276252
vt 0.734703 0.0741407
vt 0.729413 0.282621
vt 0.48373 0.116938
vt 0.239283 0.135217
vt 0.0046601 0.152762
vt 0.981741 0.661569
vt 0.743127 0.672928
vt 0.483729 0.685275
vt 0.267967 0.965376
vt 0.0551291 0.999501
vt 0.965605 0.919365
vt 0.746594 0.940277
vt 0.483729 0.965376
vt 0.965605 0.953489
vt 0.746696 0.974391
vt 0.26883 0.9995
vt 0.483729 0.9995
vt 0.239945 0.291313
vt 0.000499517 0.544653
vt 0.00316631 0.293464
vt 0.0551291 0.965376
vt 0.256126 0.619042
vt 0.48373 0.289097
vt 0.964278 0.0349922
vt 0.971002 0.276252
vt 0.734703 0.0741407
vt 0.729413 0.282621
vt 0.48373 0.116938
vt 0.239283 0.135217
vt 0.0046601 0.152762
vt 0.981741 0.661569
vt 0.743127 0.672928
vt 0.483729 0.685275
vt 0.267967 0.965376
vt 0.0551291 0.999501
vt 0.965605 0.919365
vt 0.746594 0.940277
vt 0.483729 0.965376
vt 0.965605 0.953489
vt 0.746696 0.974391
vt 0.26883 0.9995
vt 0.483729 0.9995
vn -0.00340723 0.0387599 0.999243
vn -0.0148034 0.0478321 0.998746
vn -0.00559252 0.0461955 0.998917
vn -0.0184222 0.247721 0.968656
vn -0.0105722 0.0534562 0.998514
vn 0.00439218 0.0334741 0.99943
vn 0.00405655 0.0351482 0.999374
vn 0.00578473 0.0347491 0.999379
vn 0.0060725 0.0331862 0.999431
vn 0.00762708 0.0333751 0.999414
vn 0.00598627 0.0303749 0.999521
vn 0.00100168 0.0348429 0.999392
vn -0.0028623 0.042362 0.999098
vn 0.00861094 0.0554798 0.998423
vn 0.00858499 0.0582974 0.998262
vn 0.00282803 0.058988 0.998255
vn -0.00155535 0.271937 0.962314
vn -0.0254506 0.445494 0.894923
vn 0.0165843 0.257855 0.966041
vn 0.0240702 0.265237 0.963883
vn 0.0250486 0.272551 0.961815
vn 0.0263064 0.445433 0.894929
vn 0.0416802 0.445199 0.894461
vn 0.00023723 0.445607 0.895229
vn 0.0396122 0.445233 0.894538
vn 0.00449718 0.0288923 0.999572
vn 0.0161443 0.020131 0.999667
vn 0.00689095 0.021516 0.999745
vn 0.0253896 -0.181153 0.983127
vn 0.0120731 0.0143874 0.999824
vn -0.00344796 0.0339575 0.999417
vn -0.0030653 0.0322935 0.999474
vn -0.00480407 0.0326434 0.999456
vn -0.00513573 0.0341975 0.999402
vn -0.00668437 0.0339643 0.999401
vn -0.00512868 0.0370097 0.999302
vn -2.0266e-05 0.0326851 0.999466
vn 0.00405388 0.0252748 0.999672
vn -0.00704548 0.0118242 0.999905
vn -0.0069402 0.00900402 0.999935
vn -0.00116607 0.00847647 0.999963
vn 0.00921126 -0.206205 0.978465
vn 0.0379836 -0.383177 0.922894
vn -0.00931773 -0.192419 0.981269
vn -0.0165928 -0.200137 0.979627
vn -0.0173649 -0.207599 0.97806
vn -0.0137547 -0.384568 0.922994
vn -0.0291289 -0.384798 0.922541
vn 0.0123092 -0.383988 0.923256
vn -0.0270608 -0.384769 0.922616
f 1/1/1 2/2/2 3/3/3
f 4/4/4 2/2/2 5/5/5
f 2/2/2 1/1/1 5/5/5
f 5/5/5 1/1/1 6/6/6
f 7/7/7 8/8/8 9/9/9
f 8/8/8 10/10/10 9/9/9
f 9/9/9 10/10/10 11/11/11
f 10/10/10 6/6/6 11/11/11
f 11/11/11 6/6/6 12/12/12
f 6/6/6 1/1/1 12/12/12
f 12/12/12 1/1/1 13/13/13
f 1/1/1 3/3/3 13/13/13
f 8/8/8 14/14/14 10/10/10
f 14/14/14 15/15/15 10/10/10
f 10/10/10 15/15/15 6/6/6
f 15/15/15 16/16/16 6/6/6
f 6/6/6 16/16/16 5/5/5
f 16/16/16 17/17/17 5/5/5
f 5/5/5 17/17/17 4/4/4
f 17/17/17 18/18/18 4/4/4
f 14/14/14 19/19/19 15/15/15
f 19/19/19 20/20/20 15/15/15
f 15/15/15 20/20/20 16/16/16
f 20/20/20 21/21/21 16/16/16
f 16/16/16 21/21/21 17/17/17
f 19/19/19 22/22/22 20/20/20
f 22/22/22 23/23/23 20/20/20
f 20/20/20 23/23/23 21/21/21
f 18/18/18 17/17/17 24/24/24
f 17/17/17 21/21/21 24/24/24
f 24/24/24 21/21/21 25/25/25
f 21/21/21 23/23/23 25/25/25
f 26/26/26 27/27/27 28/28/28
f 29/29/29 27/27/27 30/30/30
f 27/27/27 26/26/26 30/30/30
f 30/30/30 26/26/26 31/31/31
f 32/32/32 33/33/33 34/34/34
f 33/33/33 35/35/35 34/34/34
f 34/34/34 35/35/35 36/36/36
f 35/35/35 31/31/31 36/36/36
f 36/36/36 31/31/31 37/37/37
f 31/31/31 26/26/26 37/37/37
f 37/37/37 26/26/26 38/38/38
f 26/26/26 28/28/28 38/38/38
f 33/33/33 39/39/39 35/35/35
f 39/39/39 40/40/40 35/35/35
f 35/35/35 40/40/40 31/31/31
f 40/40/40 41/41/41 31/31/31
f 31/31/31 41/41/41 30/30/30
f 41/41/41 42/42/42 30/30/30
f 30/30/30 42/42/42 29/29/29
f 42/42/42 43/43/43 29/29/29
f 39/39/39 44/44/44 40/40/40
f 44/44/44 45/45/45 40/40/40
f 40/40/40 45/45/45 41/41/41
f 45/45/45 46/46/46 41/41/41
f 41/41/41 46/46/46 42/42/42
f 44/44/44 47/47/47 45/45/45
f 47/47/47 48/48/48 45/45/45
f 45/45/45 48/48/48 46/46/46
f 43/43/43 42/42/42 49/49/49
f 42/42/42 46/46/46 49/49/49
f 49/49/49 46/46/46 50/50/50
f 46/46/46 48/48/48 50/50/50
