# exported with NifSkope

mtllib pages1.mtl

# Octavo02:1

g Octavo02:1
usemtl Material.000001

v 6.02953 -9.78162 1.23679
v 5.85115 -9.62677 0.540354
v 6.02955 9.75868 1.23679
v 5.85117 9.50676 0.540354
v 5.85115 -9.62677 -0.426752
v 5.85117 9.50676 -0.426752
v 6.02953 -9.78162 -1.25717
v 6.02955 9.75868 -1.25717
v -5.92522 -9.78161 1.23679
v -6.34779 -9.62676 0.540354
v 6.02953 -9.78162 1.23679
v 5.85115 -9.62677 0.540354
v -6.34779 -9.62676 -0.426752
v 5.85115 -9.62677 -0.426752
v -5.92522 -9.78161 -1.25717
v 6.02953 -9.78162 -1.25717
v 6.02955 9.75868 1.23679
v 5.85117 9.50676 0.540354
v -5.9252 9.75869 1.23679
v -6.34776 9.50677 0.540354
v 5.85117 9.50676 -0.426752
v -6.34776 9.50677 -0.426752
v 6.02955 9.75868 -1.25717
v -5.9252 9.75869 -1.25717
vt 0.9995 0.999499
vt 0.991583 0.720528
vt 0.000499576 0.9995
vt 0.013379 0.720529
vt 0.991583 0.333138
vt 0.013379 0.333139
vt 0.9995 0.000499606
vt 0.000499576 0.000500321
vt 0.0346059 0.999501
vt 0.000499517 0.72053
vt 0.999501 0.9995
vt 0.985103 0.720529
vt 0.000499517 0.33314
vt 0.985103 0.333139
vt 0.0346059 0.000501454
vt 0.9995 0.00050056
vt 0.999501 0.999498
vt 0.985103 0.720528
vt 0.0346059 0.999499
vt 0.000499517 0.720529
vt 0.985103 0.333138
vt 0.000499517 0.333138
vt 0.9995 0.000499368
vt 0.0346059 0.000500202
vn 0.96873 -1.06379e-06 -0.248116
vn 0.991123 -1.11161e-06 -0.132945
vn 0.968731 -1.10314e-06 -0.248115
vn 0.990551 -1.13214e-06 -0.137143
vn 0.993784 -1.13996e-06 0.111327
vn 0.993427 -1.11376e-06 0.114468
vn 0.977699 -1.1206e-06 0.210011
vn 0.977699 -1.07363e-06 0.21001
vn -8.56592e-07 -0.976161 -0.217048
vn -9.12249e-07 -0.996229 -0.0867598
vn -9.13189e-07 -0.976161 -0.217047
vn -9.31671e-07 -0.993124 -0.117071
vn -9.35402e-07 -0.997101 0.076094
vn -9.0313e-07 -0.99521 0.0977649
vn -9.20128e-07 -0.983054 0.183315
vn -8.62641e-07 -0.983054 0.183314
vn 8.25184e-07 0.940369 -0.340156
vn 9.30388e-07 0.982788 -0.184739
vn 9.51773e-07 0.94037 -0.340155
vn 1.00651e-06 0.990369 -0.138456
vn 1.00392e-06 0.987816 0.155628
vn 9.56407e-07 0.992534 0.121967
vn 9.65737e-07 0.956935 0.290301
vn 8.39721e-07 0.956936 0.2903
f 1/1/1 2/2/2 3/3/3
f 3/3/3 2/2/2 4/4/4
f 2/2/2 5/5/5 4/4/4
f 4/4/4 5/5/5 6/6/6
f 5/5/5 7/7/7 6/6/6
f 6/6/6 7/7/7 8/8/8
f 9/9/9 10/10/10 11/11/11
f 11/11/11 10/10/10 12/12/12
f 10/10/10 13/13/13 12/12/12
f 12/12/12 13/13/13 14/14/14
f 13/13/13 15/15/15 14/14/14
f 14/14/14 15/15/15 16/16/16
f 17/17/17 18/18/18 19/19/19
f 19/19/19 18/18/18 20/20/20
f 18/18/18 21/21/21 20/20/20
f 20/20/20 21/21/21 22/22/22
f 21/21/21 23/23/23 22/22/22
f 22/22/22 23/23/23 24/24/24
